<?xml version="1.0" encoding="UTF-8" standalone="no"?>
<!DOCTYPE svg PUBLIC "-//W3C//DTD SVG 1.1//EN" "http://www.w3.org/Graphics/SVG/1.1/DTD/svg11.dtd">
<svg version="1.1" xmlns="http://www.w3.org/2000/svg" xmlns:xlink="http://www.w3.org/1999/xlink" preserveAspectRatio="xMidYMid meet" viewBox="0 0 640 640" width="512" height="512"><defs><path d="M288 448L288 496L262.59 476.22L235.34 462.97L199.34 452.72L166.59 448.97L144 448L288 448Z" id="c668P2mZO4"></path><path d="M352 448L352 496L377.41 476.22L404.66 462.97L440.66 452.72L473.41 448.97L496 448L352 448Z" id="b3uS1DkTiQ"></path><path d="M144 240L288 240L267.14 222.5L232.81 205.83L193.47 196.16L164.47 192.83L144 192L144 240Z" id="bfjSH5sX9"></path><path d="M496 240L352 240L372.86 222.5L407.19 205.83L446.53 196.16L475.53 192.83L496 192L496 240Z" id="b3rKkvItfN"></path><path d="M496 240L496 448L144 448L144 240L496 240Z" id="d44tLDlv0M"></path><path d="M352 240L352 496L288 496L288 240L352 240Z" id="c3e0ttnePo"></path><path d="M496 448C431.22 448.24 383.22 464.24 352 496L288 496" id="b3onVNliIb"></path><path d="M144 192L144 448" id="a1HGClw0Dk"></path><path d="M496 192C431.22 192.24 383.22 208.24 352 240L288 240" id="d1KbBOMlqn"></path><path d="M144 192C208.78 192.24 256.78 208.24 288 240L352 240" id="b2LjkA2YM2"></path><path d="M144 448C208.78 448.24 256.78 464.24 288 496L352 496" id="dakvlW9kE"></path><path d="M496 192L496 448" id="dLBSv10b"></path><path d="M448 320C448 390.65 390.65 448 320 448C249.35 448 192 390.65 192 320C192 249.35 249.35 192 320 192C390.65 192 448 249.35 448 320Z" id="agRydMT0"></path><path d="M192 320C219.1 300.18 229.48 306.27 223.15 338.27C213.65 386.27 269.65 296.77 258.65 354.27C247.65 411.77 303.15 476.77 349.65 417.77C396.15 358.77 255.65 433.27 299.15 408.77C342.65 384.27 441.91 185.44 320 192C238.73 196.37 196.06 239.04 192 320Z" id="h2HmRdzkdv"></path></defs><g><g><g><use xlink:href="#c668P2mZO4" opacity="1" fill="#f8e492" fill-opacity="1"></use></g><g><use xlink:href="#b3uS1DkTiQ" opacity="1" fill="#f8e492" fill-opacity="1"></use></g><g><use xlink:href="#bfjSH5sX9" opacity="1" fill="#f8e492" fill-opacity="1"></use></g><g><use xlink:href="#b3rKkvItfN" opacity="1" fill="#f8e492" fill-opacity="1"></use></g><g><use xlink:href="#d44tLDlv0M" opacity="1" fill="#f8e492" fill-opacity="1"></use></g><g><use xlink:href="#c3e0ttnePo" opacity="1" fill="#f8e492" fill-opacity="1"></use></g><g><g><use xlink:href="#b3onVNliIb" opacity="1" fill-opacity="0" stroke="#4d4d4d" stroke-width="5" stroke-opacity="1"></use></g></g><g><g><use xlink:href="#a1HGClw0Dk" opacity="1" fill-opacity="0" stroke="#4d4d4d" stroke-width="5" stroke-opacity="1"></use></g></g><g><g><use xlink:href="#d1KbBOMlqn" opacity="1" fill-opacity="0" stroke="#4d4d4d" stroke-width="5" stroke-opacity="1"></use></g></g><g><g><use xlink:href="#b2LjkA2YM2" opacity="1" fill-opacity="0" stroke="#4d4d4d" stroke-width="5" stroke-opacity="1"></use></g></g><g><g><use xlink:href="#dakvlW9kE" opacity="1" fill-opacity="0" stroke="#4d4d4d" stroke-width="5" stroke-opacity="1"></use></g></g><g><g><use xlink:href="#dLBSv10b" opacity="1" fill-opacity="0" stroke="#4d4d4d" stroke-width="5" stroke-opacity="1"></use></g></g><g><use xlink:href="#agRydMT0" opacity="1" fill="#647bd7" fill-opacity="1"></use></g><g><use xlink:href="#h2HmRdzkdv" opacity="1" fill="#90dd93" fill-opacity="1"></use></g></g></g></svg>